 <svg  version="1.0" xmlns="http://www.w3.org/2000/svg"  width="450.000000pt" height="540.000000pt" viewBox="0 0 450.000000 540.000000"  preserveAspectRatio="xMidYMid meet">  <g transform="translate(0.000000,540.000000) scale(0.100000,-0.100000)" fill="#fbf783" stroke="none"> <path d="M901 5174 c-166 -44 -298 -166 -350 -322 -63 -185 18 -497 168 -651 35 -36 46 -53 39 -65 -24 -42 -92 -230 -113 -309 -13 -50 -30 -94 -38 -98 -9 -6 -13 -18 -9 -36 5 -24 3 -26 -10 -15 -13 10 -17 10 -22 -4 -4 -10 -3 -20 1 -23 13 -9 13 -62 1 -85 -33 -61 -25 -528 11 -694 22 -99 89 -280 122 -327 l21 -30 -6 30 c-6 27 -5 28 7 13 8 -10 19 -18 24 -18 6 0 22 -12 37 -26 25 -26 26 -26 26 -5 0 12 -17 36 -39 57 -131 118 -189 349 -178 712 5 196 25 332 72 507 49 180 142 384 210 460 24 28 45 53 45 57 0 16 85 112 140 157 33 27 56 53 50 56 -5 3 -28 -11 -52 -32 -23 -21 -47 -42 -53 -46 -48 -37 -143 -137 -115 -122 12 7 12 5 -1 -11 -9 -10 -22 -34 -30 -51 -8 -18 -17 -33 -20 -33 -4 0 -17 -11 -30 -25 -13 -13 -28 -25 -32 -25 -12 0 13 42 46 78 29 30 30 32 10 29 -32 -5 -63 -36 -63 -64 0 -12 -2 -23 -5 -23 -20 0 -98 97 -129 162 -49 99 -42 123 8 27 39 -77 73 -125 81 -117 3 3 -7 22 -23 44 -48 67 -103 204 -122 305 -26 132 25 301 112 375 158 133 405 118 557 -33 49 -50 53 -57 49 -93 -2 -26 0 -36 6 -30 6 6 25 10 43 10 30 0 33 2 23 19 -5 11 -40 51 -78 90 -152 156 -347 193 -534 101 -80 -40 -96 -33 -33 13 118 86 232 116 376 97 145 -18 280 -79 406 -184 64 -53 74 -66 48 -66 -8 0 -15 -4 -15 -10 0 -11 119 -2 135 10 9 7 32 12 123 26 77 12 300 19 392 12 139 -11 315 -43 403 -75 40 -14 89 -28 110 -30 23 -3 37 -10 37 -19 0 -17 17 -19 22 -2 3 7 11 9 24 3 17 -7 17 -8 2 -12 -10 -3 -18 -8 -18 -13 0 -15 33 1 65 30 47 44 196 119 257 130 97 18 267 -27 331 -88 17 -17 37 -55 54 -107 35 -108 44 -320 19 -411 -23 -78 -59 -155 -85 -178 -11 -11 -21 -24 -22 -30 0 -6 -20 -28 -45 -48 -44 -37 -45 -37 -64 -18 -11 11 -24 20 -28 20 -8 0 -32 43 -32 58 0 4 30 38 67 77 92 97 131 159 144 230 23 125 -1 218 -79 302 -64 69 -195 104 -249 67 -15 -11 -33 -21 -38 -24 -28 -14 -211 -125 -215 -131 -10 -14 -58 -21 -65 -10 -10 17 20 41 52 41 26 0 123 57 123 73 0 14 -19 7 -48 -18 -17 -14 -43 -28 -59 -31 -24 -5 -31 -1 -42 20 -16 30 -31 25 -31 -10 0 -30 -34 -96 -45 -86 -16 15 7 -54 30 -88 12 -19 26 -42 29 -50 3 -8 3 -4 0 10 -3 14 -8 41 -9 60 -2 19 -8 36 -14 38 -6 2 -11 8 -11 13 0 14 26 11 39 -5 7 -8 19 -12 29 -10 28 8 104 -127 81 -142 -6 -4 -8 -19 -5 -37 3 -17 1 -36 -6 -44 -9 -11 0 -31 44 -96 30 -45 76 -117 103 -160 44 -73 88 -117 102 -104 3 4 -8 22 -26 42 -17 20 -45 63 -61 95 -17 33 -39 65 -50 72 -14 9 -16 16 -8 25 7 9 3 21 -17 45 -51 60 -80 147 -55 163 6 3 14 -5 19 -18 5 -13 23 -47 40 -74 17 -28 31 -58 31 -68 0 -10 5 -15 14 -12 19 7 56 -20 50 -37 -7 -18 54 -96 91 -116 17 -9 48 -44 70 -77 44 -67 77 -97 67 -61 -3 14 7 32 36 61 73 74 102 111 132 172 68 136 76 305 24 513 -32 128 -30 134 39 127 49 -4 88 -41 125 -115 25 -52 27 -63 27 -195 0 -190 -24 -277 -116 -422 -27 -43 -34 -61 -22 -55 31 17 95 102 77 102 -4 0 0 8 8 18 28 30 78 197 86 284 10 98 -8 229 -38 286 -26 49 -74 100 -106 112 -14 6 -57 10 -96 10 -54 0 -88 7 -136 26 -164 65 -286 50 -459 -58 -18 -11 -38 -18 -44 -16 -11 4 67 58 161 110 107 61 254 84 421 66 155 -17 267 -98 336 -243 34 -73 38 -89 41 -183 3 -63 -1 -121 -8 -150 -21 -78 -43 -146 -50 -157 -4 -5 -10 -23 -14 -40 -8 -33 -46 -96 -83 -135 -13 -14 -29 -34 -34 -45 -5 -11 13 5 42 35 164 174 220 523 114 705 -88 149 -232 231 -425 242 -164 10 -324 -44 -487 -165 -43 -32 -84 -61 -91 -66 -7 -4 -64 10 -130 33 -143 49 -212 65 -367 85 -210 28 -447 17 -627 -29 l-58 -15 -43 44 c-169 168 -455 262 -646 210z m1939 -310 c0 -9 -32 -33 -44 -34 -5 0 -1 9 9 20 18 20 35 26 35 14z m396 -69 c27 -8 63 -27 80 -43 39 -35 84 -105 84 -130 0 -10 5 -23 11 -29 7 -7 7 -31 0 -79 -15 -99 -14 -96 -50 -134 -18 -19 -41 -52 -52 -72 -22 -44 -62 -88 -78 -88 -6 0 -22 -7 -36 -16 -22 -14 -24 -14 -36 8 -7 13 -21 29 -31 37 -11 7 -17 19 -14 27 3 8 -6 24 -20 36 -14 13 -47 57 -74 100 -28 42 -54 79 -59 82 -5 4 -19 26 -31 51 -12 25 -27 45 -34 45 -7 0 -20 16 -30 37 -21 44 -9 56 43 49 26 -4 31 -2 23 6 -14 14 14 36 108 80 55 26 80 35 141 47 3 0 28 -6 55 -14z"/> <path d="M3353 4561 c4 -18 7 -55 7 -82 0 -27 4 -49 9 -49 5 0 9 31 10 69 1 53 -3 72 -16 82 -15 13 -16 11 -10 -20z"/> <path d="M3530 4995 c0 -7 8 -15 48 -49 15 -13 21 -15 17 -5 -7 16 -65 64 -65 54z"/> <path d="M890 4921 c-62 -10 -102 -33 -141 -83 -47 -62 -49 -64 -49 -46 0 9 16 37 35 62 43 57 34 60 -16 6 -46 -50 -56 -99 -40 -206 6 -41 11 -89 11 -107 0 -18 9 -43 20 -57 11 -14 20 -31 20 -38 0 -7 15 -34 33 -60 17 -25 39 -59 48 -75 l16 -30 62 74 c71 84 161 171 272 262 43 34 83 76 90 92 10 21 22 31 42 33 31 4 33 8 11 30 -15 15 -18 14 -30 -3 -8 -10 -14 -22 -14 -27 0 -4 -7 -8 -15 -8 -9 0 -15 9 -15 25 0 16 -10 31 -27 42 -16 9 -49 36 -76 59 -26 24 -60 45 -75 48 -58 11 -119 13 -162 7z m168 -46 c12 -4 22 -11 22 -16 0 -4 24 -25 54 -45 38 -27 52 -43 48 -56 -2 -10 2 -20 12 -24 9 -3 14 -10 11 -15 -3 -4 -13 -5 -21 -2 -10 4 -17 -2 -21 -16 -3 -11 -11 -21 -17 -21 -16 0 -110 -89 -126 -120 -10 -19 -2 -15 33 18 26 23 52 42 58 42 7 0 10 3 6 6 -6 7 17 34 29 34 4 0 17 11 30 25 24 26 47 34 39 13 -3 -7 -27 -32 -53 -55 -173 -153 -174 -154 -191 -141 -9 7 -13 9 -10 5 6 -7 -23 -44 -83 -108 -16 -15 -28 -33 -28 -38 0 -6 -7 -8 -15 -5 -18 7 -76 119 -67 129 3 3 -1 3 -10 0 -11 -4 -22 2 -33 19 -14 21 -15 37 -7 108 5 46 8 102 7 126 -1 29 2 42 12 42 7 0 13 4 13 10 0 15 75 90 91 91 8 1 19 1 26 0 6 -1 14 2 16 6 6 9 139 0 175 -12z"/> <path d="M991 4620 c-28 -34 -51 -67 -51 -73 0 -7 3 -7 8 -1 79 94 104 126 99 130 -2 3 -28 -23 -56 -56z"/> <path d="M1995 4899 c-22 -12 -44 -25 -49 -30 -14 -12 -68 -11 -122 2 -55 14 -66 6 -31 -22 41 -32 31 -59 -23 -59 -9 0 -23 -7 -30 -15 -11 -14 -4 -15 61 -9 74 7 95 13 71 21 -7 3 -17 14 -23 25 -10 18 -9 18 10 8 12 -6 21 -15 21 -20 0 -6 8 -10 18 -10 13 0 14 -2 3 -9 -9 -6 2 -11 34 -16 44 -6 50 -4 79 24 17 16 58 40 91 53 53 20 57 23 31 26 -16 2 -32 -2 -36 -8 -4 -7 -16 -9 -29 -5 -15 4 -21 15 -21 36 0 35 -4 35 -55 8z m-5 -109 c-8 -5 -28 -9 -45 -9 -29 1 -29 1 -5 9 14 4 34 8 45 9 16 1 17 -1 5 -9z"/> <path d="M1346 4777 c-10 -8 -17 -19 -15 -25 5 -14 42 13 37 28 -2 7 -9 6 -22 -3z"/> <path d="M1670 4719 c-153 -13 -391 -79 -455 -125 -16 -12 -36 -19 -42 -17 -7 3 -13 -2 -13 -10 0 -9 -9 -19 -20 -22 -11 -3 -20 -10 -20 -14 0 -21 16 -17 64 14 242 160 756 204 1043 89 207 -83 392 -260 554 -529 63 -104 109 -217 144 -348 35 -131 46 -224 46 -367 -2 -344 -94 -576 -288 -731 -145 -115 -361 -209 -608 -263 -135 -30 -161 -38 -95 -30 149 18 380 89 515 156 240 121 374 266 438 473 47 153 73 402 57 547 -40 354 -165 614 -425 886 -69 73 -115 129 -115 141 0 20 1 20 68 -4 184 -66 287 -116 320 -153 19 -22 30 -29 25 -17 -11 33 -57 85 -74 85 -9 0 -36 11 -60 24 -73 41 -193 84 -358 131 -205 57 -288 74 -435 85 -134 11 -133 11 -266 -1z"/> <path d="M1663 4619 c-86 -8 -218 -37 -329 -75 -76 -25 -220 -104 -251 -137 -28 -29 -28 -29 -3 -17 14 7 39 23 55 35 17 11 41 26 55 32 103 47 181 75 280 101 107 28 137 33 260 48 51 6 265 -19 354 -42 32 -8 61 -13 63 -10 7 7 -42 26 -66 26 -10 0 -37 7 -60 15 -23 8 -76 17 -119 20 -42 3 -93 7 -112 9 -19 2 -76 -1 -127 -5z"/> <path d="M2160 4548 c3 -3 21 -10 40 -17 19 -6 30 -7 25 -2 -6 5 -23 13 -40 17 -16 4 -28 5 -25 2z"/> <path d="M1505 4494 c-204 -31 -395 -115 -500 -220 -56 -55 -154 -208 -142 -220 2 -3 26 28 53 68 71 109 143 174 240 219 293 134 693 151 1038 42 148 -46 260 -115 372 -227 38 -40 87 -100 108 -134 22 -34 40 -62 42 -62 9 0 -8 43 -39 96 -71 120 -230 250 -386 315 -152 63 -354 100 -611 113 -36 1 -4 3 70 3 219 1 456 -49 613 -128 291 -145 458 -389 512 -744 19 -126 19 -311 1 -407 -28 -148 -110 -319 -191 -398 -68 -66 -274 -138 -575 -201 -192 -40 -283 -64 -353 -95 -76 -34 -234 -46 -256 -20 -17 20 -41 21 -41 1 0 -8 -4 -15 -10 -15 -5 0 -10 7 -10 16 0 8 -5 12 -10 9 -6 -4 -8 -11 -5 -16 4 -5 1 -9 -4 -9 -6 0 -11 5 -11 11 0 5 -4 8 -8 5 -5 -3 -19 0 -33 7 -13 7 -60 28 -104 46 -44 19 -97 45 -117 58 -45 28 -45 28 -51 6 -4 -17 -5 -17 -6 0 0 9 -5 17 -11 17 -5 0 -7 -7 -4 -15 5 -11 1 -14 -12 -10 -11 3 -5 -1 11 -9 17 -8 34 -12 38 -9 5 3 18 -4 30 -15 20 -19 53 -36 174 -87 53 -22 72 -64 42 -91 -17 -16 -24 -16 -57 -5 -20 7 -54 24 -74 37 -20 13 -100 55 -178 94 -275 136 -333 200 -391 425 -19 77 -38 245 -27 245 3 0 16 -42 28 -92 35 -145 85 -241 163 -315 35 -35 70 -63 76 -63 6 0 11 -4 11 -8 0 -10 65 -42 86 -42 8 0 26 -7 39 -16 14 -9 25 -13 25 -9 0 19 -23 44 -52 56 -48 19 -126 71 -180 118 -111 99 -182 311 -180 541 1 134 -14 94 -26 -70 -14 -190 0 -345 40 -465 54 -160 145 -247 331 -320 52 -19 125 -54 163 -76 38 -23 94 -51 123 -64 30 -12 58 -31 62 -41 7 -18 7 -18 14 1 3 11 11 27 16 35 5 8 12 23 15 32 6 18 60 38 101 38 33 0 39 -21 14 -42 l-23 -18 27 -10 c42 -16 58 -68 52 -174 -2 -50 -8 -102 -11 -116 l-8 -25 21 24 c16 18 21 37 21 85 0 43 3 57 10 46 9 -13 10 -13 10 1 0 8 -5 20 -10 25 -14 14 -1 102 17 120 13 12 10 14 -17 14 -27 0 -34 6 -51 45 -13 28 -26 45 -37 45 -20 -1 -79 -15 -105 -25 -13 -5 -16 -3 -12 8 15 37 120 50 179 22 47 -22 114 -94 98 -104 -9 -6 -8 -20 8 -67 20 -61 27 -169 11 -179 -5 -3 -11 0 -14 7 -2 7 -2 2 0 -12 3 -22 -2 -28 -32 -40 -19 -7 -35 -16 -35 -19 0 -3 -12 -7 -27 -7 -16 -1 -53 -5 -83 -8 -46 -6 -59 -4 -75 12 -22 20 -65 35 -65 22 0 -12 82 -56 118 -63 17 -4 34 -2 37 3 8 13 25 13 25 1 0 -5 -6 -16 -12 -23 -8 -8 -13 -43 -14 -91 0 -42 -6 -87 -12 -100 -22 -44 -52 -251 -52 -361 0 -157 24 -328 43 -306 2 3 -2 52 -10 110 -24 177 -2 506 36 530 11 6 18 67 20 172 1 20 5 26 16 22 12 -5 14 0 9 25 -5 24 -3 31 10 31 9 0 16 5 16 11 0 7 10 5 25 -5 17 -11 39 -15 72 -12 27 2 48 5 48 6 0 1 14 3 30 5 17 2 68 17 115 33 63 22 88 27 98 19 10 -8 16 -7 22 2 4 8 25 13 47 13 21 0 45 3 53 8 10 6 -10 8 -55 5 -107 -8 -145 -16 -200 -40 -27 -12 -72 -26 -98 -29 l-48 -7 7 38 c3 21 10 42 15 48 5 5 73 12 151 16 174 10 284 23 448 56 451 89 757 245 1006 514 23 24 52 52 64 62 16 13 20 25 16 42 -6 25 9 44 17 23 3 -8 6 -6 6 4 2 31 -50 76 -94 81 -39 4 -41 3 -72 -47 -52 -84 -150 -192 -221 -244 -37 -27 -121 -79 -187 -117 -192 -109 -432 -170 -769 -195 -202 -14 -338 -30 -358 -41 -21 -10 -24 -6 -32 47 l-7 41 79 7 c44 3 126 19 183 35 131 37 272 71 293 71 9 0 16 5 16 11 0 5 5 7 12 3 7 -4 8 -3 4 4 -4 6 -12 9 -19 7 -7 -2 -30 -6 -52 -9 -69 -9 -96 -16 -239 -57 -76 -21 -141 -38 -143 -36 -2 3 19 14 47 26 27 12 50 23 50 26 0 2 -30 -5 -67 -16 -135 -40 -168 -47 -171 -39 -2 5 -14 25 -27 44 l-23 34 46 12 c26 6 79 24 119 40 39 17 83 30 96 30 14 0 47 6 73 14 27 8 114 27 194 42 153 28 345 86 430 129 55 28 107 38 113 22 5 -17 -118 -130 -139 -126 -4 0 -11 -6 -16 -15 -5 -9 -13 -14 -18 -11 -15 9 0 33 26 39 21 6 35 26 17 26 -15 0 -105 -64 -95 -68 9 -3 9 -9 1 -24 -9 -16 -8 -19 3 -16 7 3 14 14 16 26 2 12 8 22 14 22 6 0 8 -9 5 -20 -4 -16 -2 -18 11 -10 10 6 32 20 51 31 59 35 120 90 143 128 12 20 24 38 27 41 30 27 96 174 136 305 50 162 53 169 49 110 l-3 -50 9 40 c21 94 6 329 -34 511 -22 104 -79 256 -128 343 -85 151 -307 327 -494 391 -231 80 -539 110 -769 74z m1843 -1637 c13 -10 17 -67 4 -67 -4 0 -16 -16 -27 -36 -11 -20 -44 -57 -73 -83 -30 -25 -80 -70 -111 -99 -111 -105 -291 -213 -393 -237 -10 -2 -44 -13 -75 -24 -148 -50 -229 -72 -320 -86 -54 -8 -113 -19 -131 -24 -82 -24 -468 -56 -492 -41 -13 8 -5 66 10 75 11 6 255 32 380 39 186 12 279 25 390 56 145 42 177 50 210 56 19 4 40 12 45 18 19 20 87 60 124 71 19 6 23 4 18 -8 -4 -11 -2 -14 9 -10 11 4 12 9 5 16 -7 7 -7 15 0 24 17 19 28 16 22 -7 -3 -11 -1 -20 5 -20 5 0 12 10 15 21 4 15 11 20 22 15 19 -7 47 15 167 131 43 42 75 79 73 84 -7 10 30 84 45 94 5 3 10 13 10 21 0 36 34 47 68 21z"/> <path d="M2894 4307 c3 -21 46 -85 61 -91 22 -8 18 7 -14 52 -33 44 -50 59 -47 39z"/> <path d="M1495 4229 c-38 -5 -74 -14 -80 -20 -7 -8 5 -9 45 -3 30 5 127 9 215 8 128 0 178 -5 247 -22 174 -43 277 -108 317 -202 43 -99 68 -246 72 -410 l1 -75 10 55 c13 77 -5 247 -42 398 -16 68 -30 129 -30 137 0 22 30 47 44 36 6 -5 38 -14 71 -21 72 -14 137 -41 183 -76 40 -31 55 -24 21 12 -37 40 -136 81 -224 94 -124 17 -229 37 -355 65 -130 30 -370 41 -495 24z"/> <path d="M1241 4160 c-41 -16 -82 -36 -90 -45 -15 -15 -14 -15 4 -9 11 4 25 11 30 15 6 4 51 22 100 38 60 20 80 31 60 30 -16 0 -63 -13 -104 -29z"/> <path d="M3501 4082 c-17 -31 -13 -40 5 -14 9 13 14 26 11 29 -3 2 -10 -4 -16 -15z"/> <path d="M1068 4048 c-24 -24 -33 -34 -19 -22 14 11 39 30 55 42 16 12 24 22 18 22 -5 0 -30 -19 -54 -42z"/> <path d="M846 3997 c-45 -76 -103 -264 -132 -427 -20 -113 -24 -401 -6 -440 9 -20 10 -3 7 83 -3 60 -1 127 4 150 6 23 13 76 16 117 7 78 26 190 43 250 49 168 63 211 82 253 28 63 19 72 -14 14z"/> <path d="M3462 4028 c-7 -7 -12 -18 -12 -24 0 -7 -8 -15 -17 -17 -17 -4 -17 -5 -1 -6 10 0 25 10 34 24 18 28 15 42 -4 23z"/> <path d="M3074 3998 c4 -18 15 -89 26 -158 10 -69 28 -182 40 -252 11 -70 20 -172 20 -226 0 -103 15 -210 31 -227 7 -7 7 9 2 45 -14 96 -7 258 15 328 11 34 16 64 12 67 -4 3 -10 -4 -13 -15 -3 -12 -14 -20 -26 -20 -18 0 -21 6 -22 43 0 23 -2 49 -4 57 -8 31 -45 258 -49 303 l-5 47 29 -15 c15 -8 30 -19 32 -23 1 -5 14 -13 28 -17 20 -6 16 0 -19 31 -41 35 -85 64 -98 64 -3 0 -3 -15 1 -32z"/> <path d="M3560 3998 c0 -22 48 -155 49 -135 1 9 5 17 11 17 20 0 148 -139 193 -210 53 -85 141 -252 152 -290 4 -14 13 -38 20 -55 7 -16 21 -57 31 -90 10 -33 20 -53 21 -44 5 23 -63 211 -111 309 -89 177 -224 353 -304 394 -24 12 -31 24 -36 60 -7 42 -26 75 -26 44z"/> <path d="M3306 3971 c-10 -11 -13 -21 -8 -24 4 -4 16 3 25 13 21 25 5 35 -17 11z"/> <path d="M3372 3934 c-8 -8 -27 -17 -42 -21 -23 -4 -28 -9 -21 -22 5 -9 11 -33 15 -53 11 -59 29 -60 21 -1 -6 48 -5 52 23 72 17 11 36 21 44 21 7 0 20 5 28 10 11 7 6 10 -20 9 -19 0 -41 -7 -48 -15z"/> <path d="M3241 3868 c4 -29 13 -73 19 -98 7 -25 12 -55 12 -67 0 -13 6 -23 14 -23 8 0 14 -4 14 -10 0 -5 16 -10 35 -10 30 0 35 -3 35 -24 0 -13 7 -40 15 -59 18 -43 19 -50 5 -42 -6 4 -16 21 -24 38 -7 18 -24 41 -36 52 -23 20 -23 20 -16 0 4 -11 9 -24 10 -30 1 -5 5 -15 8 -21 4 -6 -4 -26 -17 -44 -59 -79 -94 -255 -76 -371 14 -85 25 -89 18 -5 -8 82 8 206 32 261 21 45 54 79 92 94 23 8 30 6 54 -19 15 -16 40 -33 54 -38 36 -13 89 6 114 40 19 26 19 27 1 59 -23 39 -59 66 -99 74 -26 5 -24 4 10 -13 78 -37 99 -114 39 -138 -41 -17 -86 5 -131 64 -31 41 -45 80 -23 67 6 -3 10 -2 10 4 0 5 -5 11 -12 13 -6 2 -8 10 -4 16 5 9 12 9 28 1 17 -9 18 -13 7 -20 -8 -5 -9 -9 -4 -9 6 0 3 -4 -5 -10 -12 -7 -10 -13 11 -33 15 -13 28 -29 30 -36 3 -7 17 -14 32 -15 35 -4 46 -14 27 -26 -21 -14 6 -13 31 0 15 8 18 19 15 46 -3 20 -6 37 -8 38 -13 8 -61 26 -70 26 -6 0 -8 -11 -6 -24 4 -17 1 -23 -9 -19 -12 5 -15 15 -17 61 -1 18 -42 45 -56 37 -4 -3 -13 2 -20 10 -7 8 -25 15 -40 15 -25 0 -30 6 -43 48 -32 99 -40 151 -27 167 8 9 8 15 2 15 -6 0 -17 2 -25 5 -11 5 -12 -3 -6 -47z m284 -296 c13 -9 18 -52 6 -52 -5 0 -14 14 -20 30 -10 30 -6 37 14 22z"/> <path d="M2770 3825 c6 -14 15 -37 20 -51 6 -15 13 -25 15 -22 3 3 -4 26 -15 51 -22 49 -37 66 -20 22z"/> <path d="M3191 3833 c-1 -6 6 -45 15 -85 19 -90 19 -96 11 -130 -5 -17 -3 -28 3 -28 5 0 10 5 10 12 0 6 10 22 22 35 l21 23 -21 0 c-17 0 -22 8 -27 48 -7 50 -33 145 -34 125z"/> <path d="M3324 3749 c3 -17 6 -35 6 -40 0 -5 12 -9 27 -9 14 0 41 -12 60 -26 18 -14 43 -24 55 -22 21 3 20 5 -11 35 -19 19 -29 38 -25 44 4 8 3 9 -5 5 -6 -4 -18 -2 -26 4 -20 16 -19 3 0 -17 9 -8 14 -18 11 -21 -8 -8 -44 27 -51 49 -4 11 -11 17 -16 14 -5 -4 -9 -1 -9 4 0 6 -5 11 -11 11 -8 0 -9 -11 -5 -31z m131 -69 c3 -5 -1 -10 -9 -10 -8 0 -18 5 -21 10 -3 6 1 10 9 10 8 0 18 -4 21 -10z"/> <path d="M580 3763 c-65 -25 -142 -137 -155 -226 -4 -23 -2 -106 3 -184 11 -153 33 -225 82 -271 31 -29 38 -20 11 14 -23 29 -55 130 -65 202 l-6 43 30 -22 c41 -31 47 -18 9 20 l-32 32 5 95 c6 110 22 140 71 130 20 -4 27 -2 25 7 -7 19 -57 20 -84 2 -25 -16 -25 -16 -13 7 6 13 15 25 19 28 4 3 19 24 33 47 15 23 44 51 64 62 36 19 37 27 3 14z"/> <path d="M3540 3690 c20 -13 43 -13 35 0 -3 6 -16 10 -28 10 -18 0 -19 -2 -7 -10z"/> <path d="M3626 3661 c-3 -4 7 -14 22 -20 27 -13 27 -13 8 8 -22 24 -23 24 -30 12z"/> <path d="M1873 3582 c-12 -2 -27 -10 -35 -19 -12 -15 -11 -15 10 -4 13 7 33 11 45 9 19 -3 17 -6 -15 -22 -59 -29 -98 -79 -98 -127 0 -87 45 -143 118 -145 56 -2 108 22 147 68 22 26 26 39 22 70 -7 51 -28 81 -71 102 -45 21 -95 10 -138 -30 -24 -24 -28 -35 -28 -85 0 -41 5 -63 20 -82 26 -33 26 -45 -1 -21 -95 86 -43 223 99 255 28 6 41 4 54 -8 10 -9 18 -13 18 -8 0 4 7 2 15 -5 8 -7 15 -9 15 -4 0 5 -17 20 -37 33 -34 22 -89 31 -140 23z m93 -97 c4 -8 12 -15 20 -15 8 0 14 -7 14 -15 0 -8 -8 -15 -17 -15 -13 0 -14 -3 -5 -12 8 -8 18 -9 36 0 22 10 23 9 22 -21 -1 -17 -8 -33 -15 -35 -11 -4 -11 -6 0 -13 10 -6 8 -9 -8 -9 -14 0 -23 -6 -23 -15 0 -11 -7 -14 -24 -9 -13 3 -26 2 -29 -4 -4 -5 -19 -7 -35 -4 -23 3 -29 8 -25 23 4 14 11 18 25 13 19 -6 19 -5 1 13 -12 13 -22 17 -30 11 -9 -7 -15 0 -21 24 -7 27 -5 37 12 54 43 43 92 57 102 29z"/> <path d="M1913 3423 c-3 -10 -8 -21 -10 -25 -2 -4 3 -5 10 -2 17 6 30 44 16 44 -5 0 -12 -8 -16 -17z"/> <path d="M1023 3538 c-37 -26 -43 -43 -43 -116 0 -43 5 -57 25 -78 39 -39 81 -30 123 26 31 40 34 49 30 97 -3 32 -12 61 -23 73 -24 27 -72 26 -112 -2z m87 -29 c-15 -12 -18 -19 -8 -16 9 3 23 -2 32 -12 18 -20 20 -31 6 -31 -5 0 -10 7 -10 15 0 8 -4 15 -10 15 -10 0 -3 -27 14 -49 9 -12 7 -13 -9 -7 -16 6 -18 5 -7 -5 17 -18 15 -32 -4 -25 -21 8 -40 -4 -23 -15 24 -14 4 -19 -29 -7 -18 7 -32 18 -32 25 0 7 -7 13 -16 13 -13 0 -14 3 -5 14 7 8 11 20 10 28 -4 33 1 40 26 34 14 -4 25 -2 25 3 0 16 30 41 48 41 13 0 12 -5 -8 -21z"/> <path d="M1066 3465 c-19 -19 -21 -29 -5 -19 9 5 10 -1 5 -20 -3 -14 -2 -26 3 -26 9 0 26 69 18 76 -3 3 -12 -2 -21 -11z"/> <path d="M3616 3434 c11 -41 11 -82 -5 -219 -9 -76 -11 -132 -5 -150 8 -30 8 -30 11 10 7 84 43 324 53 350 12 31 6 45 -12 27 -8 -8 -17 -8 -31 0 -18 9 -19 8 -11 -18z"/> <path d="M3721 3339 c-18 -23 -21 -33 -12 -42 8 -8 11 -7 11 6 0 20 9 21 33 3 22 -17 22 -26 -2 -26 -23 0 -35 -38 -18 -59 9 -11 9 -15 0 -18 -7 -3 -13 -13 -13 -24 0 -10 -4 -19 -10 -19 -5 0 -8 26 -6 60 4 60 -7 90 -17 47 -8 -36 1 -140 13 -147 6 -4 23 -5 37 -2 18 3 24 1 19 -7 -4 -6 -2 -11 3 -11 6 0 12 7 12 15 2 19 4 25 15 50 5 11 9 55 9 98 0 66 -3 81 -19 93 -26 18 -27 18 -55 -17z"/> <path d="M1425 3321 c114 -9 171 -22 269 -63 38 -15 76 -28 86 -28 25 0 130 -71 166 -112 50 -57 75 -119 82 -205 l6 -78 12 40 c18 57 17 95 -5 164 -29 93 -74 141 -183 195 -128 63 -231 86 -398 91 -129 3 -131 3 -35 -4z"/> <path d="M1263 3296 c-89 -18 -202 -78 -234 -124 -50 -71 -62 -121 -56 -234 5 -111 15 -154 47 -207 32 -50 33 -32 5 44 -45 118 -44 255 1 346 20 40 79 95 128 118 69 32 131 43 246 42 230 -1 425 -109 507 -279 30 -63 37 -88 41 -166 5 -78 7 -85 13 -51 20 109 -43 279 -135 362 -57 51 -181 115 -267 137 -85 21 -224 27 -296 12z"/> <path d="M2024 3289 c-19 -22 -19 -22 4 -10 12 6 22 16 22 21 0 15 -5 12 -26 -11z"/> <path d="M1447 3173 c-6 -93 -4 -114 10 -100 9 9 41 186 35 192 -3 3 -13 5 -22 5 -14 0 -18 -15 -23 -97z"/> <path d="M812 3214 c-3 -44 29 -167 49 -189 13 -13 11 0 -11 89 -11 43 -20 94 -20 112 0 51 -15 41 -18 -12z"/> <path d="M2770 3167 c0 -11 -7 -32 -15 -48 -8 -16 -22 -42 -30 -58 -8 -16 -15 -37 -15 -48 0 -10 -7 -31 -15 -46 -21 -42 4 -29 28 14 29 51 77 169 76 188 0 12 -2 12 -6 2 -5 -11 -7 -11 -14 0 -7 11 -9 10 -9 -4z"/> <path d="M4045 3130 c3 -25 15 -83 25 -130 35 -164 52 -450 38 -676 -11 -192 -18 -254 -28 -229 -11 28 -16 10 -29 -115 -10 -91 -23 -154 -47 -234 -5 -16 -3 -18 6 -10 6 6 17 33 25 60 l13 49 1 -43 c1 -24 -4 -52 -9 -63 -7 -11 -7 -19 -1 -19 11 0 15 17 41 195 11 77 28 239 36 360 21 302 9 519 -41 766 -24 120 -44 177 -30 89z"/> <path d="M1270 3149 c0 -5 -12 -9 -26 -9 -16 0 -37 -12 -54 -30 -51 -54 -57 -197 -12 -260 29 -41 93 -68 149 -64 66 6 84 13 58 25 -17 8 -15 8 7 4 22 -4 30 1 47 29 25 39 27 56 6 56 -9 0 -12 -6 -9 -15 4 -10 0 -15 -15 -15 -12 0 -20 -6 -18 -12 1 -7 -4 -12 -12 -10 -8 2 -17 -2 -21 -8 -4 -6 -23 -13 -42 -16 -86 -14 -157 68 -145 167 8 62 34 109 62 109 12 0 25 4 31 9 14 14 86 -18 80 -36 -4 -9 -1 -13 6 -11 7 3 13 13 13 24 0 13 -17 27 -52 45 -29 15 -53 23 -53 18z"/> <path d="M3791 3099 c-7 -24 -24 -64 -37 -88 -13 -24 -24 -49 -24 -57 0 -7 -8 -19 -18 -26 -23 -16 -39 -70 -18 -62 7 3 18 15 24 27 31 59 80 139 85 138 4 -1 11 -1 15 -1 5 0 16 -19 25 -42 29 -73 27 -35 -2 48 -15 43 -30 85 -32 93 -3 8 -11 -6 -18 -30z"/> <path d="M3851 3090 c-1 -3 8 -32 19 -65 15 -46 19 -53 19 -30 0 23 -37 116 -38 95z"/> <path d="M3310 3032 c0 -13 4 -21 9 -18 5 3 12 -10 15 -29 7 -34 22 -53 33 -41 3 3 0 12 -6 20 -7 8 -11 19 -8 23 3 4 -6 22 -19 38 -23 29 -24 29 -24 7z"/> <path d="M1446 3010 c4 -14 7 -40 7 -57 1 -40 13 -43 20 -5 4 18 -1 37 -15 57 -18 27 -19 28 -12 5z"/> <path d="M1080 2948 c0 -13 9 -34 19 -48 l19 -24 -11 47 c-11 49 -27 64 -27 25z"/> <path d="M3891 2950 c0 -8 4 -32 10 -53 6 -22 8 -41 5 -44 -2 -3 -10 15 -17 38 -7 25 -14 37 -16 27 -5 -22 24 -91 36 -84 12 8 37 -101 63 -274 17 -111 19 -165 14 -305 -11 -335 -76 -584 -204 -772 -52 -77 -153 -170 -217 -199 -59 -28 -147 -32 -202 -9 -58 24 -51 8 8 -20 72 -33 124 -32 215 6 63 26 85 42 147 109 162 174 247 406 277 753 14 164 0 365 -39 553 -28 133 -78 305 -80 274z"/> <path d="M1477 2829 c-35 -54 -35 -73 1 -50 12 7 35 81 28 88 -1 2 -15 -16 -29 -38z"/> <path d="M3650 2853 c0 -6 -13 -14 -28 -18 -24 -5 -31 -14 -46 -63 -30 -96 -126 -265 -202 -356 l-33 -39 1 -111 c1 -86 -5 -140 -26 -241 -15 -71 -34 -137 -42 -146 -9 -11 -14 -40 -14 -93 0 -42 -5 -142 -11 -220 -10 -137 -9 -144 11 -179 43 -72 131 -115 212 -103 71 11 82 27 13 20 -50 -5 -68 -2 -107 16 -58 27 -78 48 -58 60 12 7 11 10 -5 16 -11 4 -23 12 -28 18 -13 19 7 425 23 455 8 16 17 45 46 161 10 37 19 123 21 200 l5 135 48 65 c63 87 121 188 160 282 23 54 36 75 46 71 8 -3 14 1 14 8 1 33 20 -22 30 -87 18 -111 20 -141 26 -303 3 -101 1 -158 -6 -166 -8 -9 -8 -15 -1 -20 11 -6 8 -49 -12 -170 -6 -38 -10 -74 -9 -78 2 -5 -2 -23 -8 -40 -5 -18 -18 -68 -29 -112 -11 -44 -25 -93 -31 -110 -11 -28 -13 -28 -21 -10 -6 14 -7 9 -3 -16 4 -25 1 -41 -10 -52 -9 -8 -16 -23 -16 -31 0 -9 -4 -16 -9 -16 -5 0 -20 -24 -34 -53 -16 -31 -39 -60 -57 -70 -34 -21 -40 -38 -10 -30 52 14 142 167 199 338 57 172 72 271 78 505 6 223 -5 351 -44 510 -14 60 -33 101 -33 73z"/> <path d="M1940 2685 c-36 -30 -88 -66 -116 -81 -52 -27 -119 -75 -79 -56 11 5 38 13 60 17 22 4 61 22 86 41 43 31 129 117 129 129 0 14 -21 1 -80 -50z"/> <path d="M3274 2608 l-29 -33 33 29 c17 17 32 31 32 33 0 8 -8 1 -36 -29z"/> <path d="M3210 2539 c-111 -97 -275 -199 -414 -256 -51 -21 -83 -39 -73 -41 10 -2 29 3 42 12 13 9 29 16 35 16 45 0 350 175 350 201 0 5 7 12 16 16 16 6 46 33 73 66 20 25 11 20 -29 -14z"/> <path d="M4051 2448 c-1 -31 3 -59 7 -62 5 -3 7 18 5 47 -6 75 -11 81 -12 15z"/> <path d="M740 2485 c0 -2 14 -26 30 -52 17 -26 30 -52 30 -59 0 -6 9 -23 20 -37 25 -31 266 -135 400 -172 119 -33 143 -43 135 -55 -3 -6 -18 -10 -33 -10 -21 0 -24 -2 -12 -10 18 -11 70 -13 70 -2 0 4 -7 21 -16 37 -9 17 -21 64 -27 105 l-12 75 -70 8 c-176 19 -211 27 -360 84 -59 22 -135 69 -135 83 0 6 -4 10 -10 10 -5 0 -10 -2 -10 -5z m334 -171 c44 -13 105 -24 135 -24 69 0 77 -5 86 -53 7 -37 7 -37 -26 -37 -40 0 -117 33 -135 58 -7 9 -16 13 -21 9 -4 -5 1 -15 11 -23 11 -7 16 -17 13 -21 -9 -9 -108 36 -129 59 -9 10 -23 18 -32 18 -9 0 -16 5 -16 11 0 5 -5 7 -10 4 -6 -3 -13 1 -16 10 -4 10 -13 13 -25 10 -11 -4 -19 -2 -19 5 0 6 5 8 10 5 14 -9 12 9 -2 24 -7 7 12 3 42 -9 30 -12 91 -33 134 -46z"/> <path d="M1010 2297 c0 -8 9 -13 23 -12 12 1 30 -2 40 -7 10 -5 17 -5 17 1 0 5 -10 13 -22 16 -13 4 -31 9 -40 11 -11 3 -18 0 -18 -9z"/> <path d="M4063 2330 c0 -25 2 -35 4 -22 2 12 2 32 0 45 -2 12 -4 2 -4 -23z"/> <path d="M3283 2348 c-6 -7 -18 -80 -27 -163 -10 -82 -21 -164 -26 -182 -5 -20 -4 -50 4 -80 l13 -48 6 55 c4 30 12 80 17 110 9 59 26 196 33 273 5 47 -2 58 -20 35z"/> <path d="M3190 2310 c-25 -9 -58 -22 -75 -29 -16 -7 -47 -15 -68 -18 -45 -7 -60 -23 -20 -23 43 0 73 -11 73 -26 0 -7 -21 -24 -47 -37 l-47 -24 31 -5 c24 -3 30 -1 25 11 -3 9 -1 12 6 7 7 -4 12 -19 12 -33 0 -23 -3 -25 -34 -19 -19 4 -37 2 -40 -3 -7 -10 16 -21 45 -21 26 0 88 -32 128 -65 17 -15 31 -24 31 -20 0 14 -42 65 -53 65 -7 1 -22 9 -33 18 -20 17 -21 26 -17 93 3 41 10 79 15 86 10 12 66 28 74 21 2 -3 0 -29 -5 -59 -20 -117 -22 -144 -11 -133 5 5 15 50 21 99 6 49 18 99 26 112 8 13 14 22 12 22 -2 -1 -24 -9 -49 -19z"/> <path d="M1630 2312 c0 -33 24 -158 32 -167 6 -6 7 -1 4 15 -3 14 -8 50 -11 80 -5 50 -24 105 -25 72z"/> <path d="M865 2241 c17 -34 17 -97 0 -135 -6 -14 -5 -18 5 -14 26 8 53 90 36 109 -8 9 -8 10 2 4 11 -6 11 -3 0 14 -7 12 -17 21 -22 21 -5 0 -15 8 -23 18 -9 11 -9 6 2 -17z"/> <path d="M4069 2248 c-5 -19 -4 -99 2 -114 5 -11 8 8 8 49 1 37 -1 67 -4 67 -3 0 -5 -1 -6 -2z"/> <path d="M2665 2230 c-11 -4 -51 -16 -90 -26 -38 -10 -64 -19 -57 -22 6 -2 36 4 67 13 35 10 62 12 73 7 18 -10 109 -8 119 2 4 3 27 6 52 7 25 1 57 5 71 10 17 6 7 7 -35 4 -207 -18 -201 -18 -181 -1 21 17 13 20 -19 6z"/> <path d="M2950 2218 c0 -4 7 -8 15 -8 8 0 15 -7 15 -15 0 -17 6 -18 35 -5 18 8 18 9 -5 10 -23 1 -23 2 -5 9 16 7 13 9 -17 13 -21 2 -38 0 -38 -4z"/> <path d="M1013 2190 c14 -11 33 -20 44 -20 12 1 7 7 -17 20 -46 25 -59 25 -27 0z"/> <path d="M2926 2138 c-18 -36 -19 -41 -7 -34 9 6 33 66 26 66 -2 0 -11 -14 -19 -32z"/> <path d="M2382 2151 c-11 -6 -10 -10 4 -15 20 -8 32 0 18 14 -5 5 -15 5 -22 1z"/> <path d="M2955 2103 c-15 -93 15 -483 38 -483 10 0 6 117 -10 295 -4 54 -3 67 6 59 18 -17 33 -242 25 -386 -4 -83 -3 -128 3 -128 17 0 25 217 13 360 -12 139 -20 170 -45 170 -19 0 -20 61 -3 78 10 10 10 15 -2 22 -12 7 -12 12 -2 22 16 16 15 28 -2 28 -9 0 -17 -15 -21 -37z"/> <path d="M1230 2105 c7 -8 22 -15 34 -15 20 1 20 2 -4 15 -33 19 -46 19 -30 0z"/> <path d="M2145 2110 c-3 -5 3 -10 14 -10 11 0 23 5 26 10 3 6 -3 10 -14 10 -11 0 -23 -4 -26 -10z"/> <path d="M2210 2105 c0 -8 5 -15 10 -15 6 0 10 7 10 15 0 8 -4 15 -10 15 -5 0 -10 -7 -10 -15z"/> <path d="M796 1988 c-37 -67 -56 -112 -56 -131 1 -16 68 107 85 156 8 20 12 37 10 37 -2 0 -20 -28 -39 -62z"/> <path d="M3652 1999 c-1 -9 -5 -32 -8 -50 -4 -28 -3 -31 6 -16 6 9 9 32 7 50 -2 17 -5 25 -5 16z"/> <path d="M1690 1982 c0 -5 15 -15 33 -23 22 -10 36 -25 44 -49 l12 -35 0 36 c1 19 -5 43 -12 53 -13 18 -77 33 -77 18z"/> <path d="M1590 1960 c0 -5 11 -10 25 -10 14 0 25 5 25 10 0 6 -11 10 -25 10 -14 0 -25 -4 -25 -10z"/> <path d="M1982 1870 c-14 -23 1 -36 18 -14 8 9 10 18 4 24 -6 6 -14 2 -22 -10z"/> <path d="M3626 1864 c-4 -14 -5 -28 -3 -31 3 -2 8 8 11 23 4 14 5 28 3 31 -3 2 -8 -8 -11 -23z"/> <path d="M1744 1807 c-11 -34 -24 -71 -28 -82 -6 -16 -6 -17 3 -5 9 11 10 -5 6 -65 l-5 -80 24 115 c12 63 26 130 30 148 13 56 -8 34 -30 -31z"/> <path d="M920 1805 c-78 -36 -123 -109 -139 -231 -22 -155 20 -256 124 -299 124 -52 273 18 309 147 17 58 21 163 10 218 -7 36 -45 103 -64 115 -22 14 -20 -3 4 -39 38 -56 49 -101 44 -180 -11 -160 -91 -246 -232 -246 -61 0 -95 19 -132 71 -27 40 -29 48 -27 133 1 50 9 112 17 139 8 26 10 47 4 47 -5 0 -1 14 9 30 9 17 22 30 27 30 5 0 20 10 33 22 33 30 145 38 193 13 22 -11 31 -13 28 -4 -11 34 -156 57 -208 34z"/> <path d="M1985 1791 c-93 -42 -145 -136 -145 -261 0 -125 53 -225 145 -272 59 -31 167 -36 226 -10 63 27 119 78 141 130 21 47 25 154 9 210 -49 163 -239 266 -376 203z m220 -47 c86 -40 145 -147 145 -259 0 -99 -28 -145 -116 -196 -44 -25 -62 -29 -123 -29 -86 0 -123 15 -174 67 -52 55 -78 132 -71 218 6 85 21 120 75 173 48 47 85 54 144 26 69 -32 79 -65 91 -299 6 -136 8 -145 26 -145 8 0 9 39 2 138 -4 75 -8 172 -9 215 0 71 -2 77 -21 77 -28 0 -84 20 -84 30 0 13 78 2 115 -16z"/> <path d="M732 1767 c-6 -7 -13 -45 -15 -85 -4 -57 -2 -72 9 -72 10 0 14 14 15 48 0 26 2 64 4 85 4 40 3 43 -13 24z"/> <path d="M1010 1776 c0 -3 20 -14 44 -25 52 -23 66 -44 73 -116 7 -69 -12 -91 -94 -100 -68 -9 -105 -24 -58 -25 32 0 124 15 164 26 24 7 24 7 19 -57 -5 -64 -5 -64 9 -29 20 47 12 150 -19 226 -18 47 -30 62 -58 76 -43 20 -80 31 -80 24z"/> <path d="M3596 1754 c-4 -14 -5 -29 -2 -31 3 -3 8 7 12 21 3 15 4 29 1 32 -2 3 -8 -7 -11 -22z"/> <path d="M2319 1768 c-4 -15 -6 -38 -3 -38 2 0 8 9 14 20 7 14 7 20 0 20 -5 0 -10 -1 -11 -2z"/> <path d="M3986 1689 c-3 -16 -21 -61 -41 -100 -19 -38 -31 -69 -26 -69 9 0 80 150 86 182 2 10 0 18 -4 18 -5 0 -11 -14 -15 -31z"/> <path d="M4016 1620 c-10 -50 -16 -93 -13 -96 6 -6 41 160 36 175 -3 7 -13 -29 -23 -79z"/> <path d="M1429 1662 c-3 -20 -2 -29 4 -23 5 5 7 19 5 32 -3 20 -5 19 -9 -9z"/> <path d="M1495 1630 c-4 -28 -5 -54 -2 -56 3 -3 8 18 12 46 4 28 5 54 2 56 -3 3 -8 -18 -12 -46z"/> <path d="M1678 1583 c-8 -35 -13 -119 -13 -213 0 -154 0 -155 38 -260 21 -58 41 -115 44 -128 6 -27 14 -28 29 -4 10 15 4 34 -31 105 -23 47 -47 112 -54 143 -14 70 -14 245 -1 338 13 86 6 97 -12 19z"/> <path d="M1486 1476 c-10 -55 9 -295 24 -310 5 -5 7 -2 4 10 -3 10 -8 93 -12 184 -7 137 -9 157 -16 116z"/> <path d="M3886 1484 c-10 -14 -16 -28 -13 -30 2 -3 12 7 21 22 10 14 16 28 13 30 -2 3 -12 -7 -21 -22z"/> <path d="M3984 1483 c-3 -16 -9 -37 -14 -48 -4 -11 -13 -40 -20 -65 -7 -25 -21 -64 -31 -87 -10 -23 -19 -47 -19 -53 0 -22 -102 -215 -154 -290 -86 -127 -223 -249 -327 -293 -34 -14 -54 -18 -154 -33 -46 -7 -57 -12 -50 -24 6 -10 -195 -6 -242 5 -18 4 -33 11 -33 15 0 5 10 6 23 3 14 -3 18 -2 10 4 -12 9 -3 47 23 98 6 11 7 36 4 55 l-6 35 -8 -30 c-6 -23 -52 -144 -74 -196 -4 -10 107 -20 211 -20 164 1 340 66 459 169 51 45 167 177 191 219 34 57 114 214 130 253 26 66 83 240 90 278 8 39 0 43 -9 5z"/> <path d="M1701 1425 c-1 -76 15 -179 35 -217 24 -46 26 -28 4 35 -11 31 -21 85 -21 119 -1 35 -5 77 -9 93 -6 24 -8 18 -9 -30z"/> <path d="M2962 1350 c0 -19 2 -27 5 -17 2 9 2 25 0 35 -3 9 -5 1 -5 -18z"/> <path d="M3203 1271 c-22 -104 -64 -210 -92 -234 -9 -8 -33 -20 -53 -28 -25 -8 -38 -19 -38 -31 0 -14 10 -11 60 20 66 41 88 73 119 175 19 61 39 197 30 197 -2 0 -14 -45 -26 -99z"/> <path d="M1379 1339 c0 -22 -1 -22 -8 -4 -7 17 -9 14 -12 -15 -2 -19 -2 -48 1 -65 5 -26 7 -22 19 33 8 34 11 65 7 69 -3 3 -6 -5 -7 -18z"/> <path d="M767 1293 c-2 -5 -8 -25 -11 -47 -4 -21 -23 -84 -43 -140 -57 -166 -75 -251 -76 -361 -1 -115 21 -186 74 -245 33 -38 33 -37 2 30 -35 74 -48 114 -44 134 1 10 -1 16 -6 13 -9 -6 -10 73 -1 89 6 8 12 51 22 149 4 34 47 165 57 171 5 3 7 9 4 14 -3 5 -1 11 5 15 5 3 10 16 10 28 0 12 7 31 15 41 8 10 12 23 9 27 -3 5 0 9 6 9 8 0 7 6 -1 21 -6 12 -9 30 -6 40 5 18 -7 27 -16 12z"/> <path d="M1381 1177 c-1 -44 -13 -71 -48 -109 -24 -26 -25 -26 -5 -37 29 -16 82 -103 98 -163 18 -70 18 -189 -1 -263 -20 -76 -54 -128 -110 -167 -53 -37 -52 -45 1 -23 84 34 181 121 160 142 -3 3 -10 -6 -15 -20 -17 -43 -33 -44 -26 0 18 103 31 130 76 153 26 14 24 1 -6 -51 -14 -24 -25 -51 -25 -59 0 -8 12 8 26 35 35 68 93 122 147 137 41 10 45 15 51 47 3 20 8 50 12 66 4 21 -2 13 -20 -24 l-26 -54 -27 24 c-15 13 -22 16 -14 7 17 -23 10 -32 -55 -73 -88 -57 -98 -50 -115 85 -7 52 -15 97 -18 100 -3 3 -15 21 -25 40 -11 19 -28 41 -38 48 -25 18 -23 33 14 72 32 35 33 35 36 11 2 -13 10 -31 18 -38 12 -13 15 -12 21 3 8 23 -16 66 -47 81 -14 7 -28 25 -31 40 -6 25 -7 24 -8 -10z"/> <path d="M1796 1089 c33 -53 36 -83 13 -113 -32 -40 -21 -42 19 -4 81 77 206 77 277 -2 42 -46 24 -320 -30 -465 -7 -18 -6 -19 8 -5 30 28 58 166 65 320 8 163 8 163 82 114 85 -57 115 -206 66 -339 -14 -38 -23 -71 -21 -73 6 -7 38 61 57 123 l18 60 -5 -54 c-14 -163 -174 -289 -330 -260 -27 5 -57 10 -65 12 -23 3 -131 80 -166 118 -31 33 -40 58 -51 147 -7 58 5 166 21 188 11 14 12 8 10 -42 l-3 -59 10 45 c5 25 7 54 5 65 -3 10 2 28 12 39 9 11 11 16 5 12 -8 -4 -13 -2 -13 6 -1 7 -12 -8 -26 -34 -16 -33 -26 -72 -31 -125 -6 -75 -7 -77 -19 -48 -8 18 -13 23 -14 13 0 -28 41 -171 56 -193 12 -17 11 -21 -9 -32 -21 -12 -21 -12 8 -10 24 2 31 -2 33 -20 5 -35 134 -146 215 -186 203 -99 348 -101 547 -10 79 36 190 103 190 115 0 8 -35 -10 -78 -40 -17 -13 -36 -20 -42 -17 -5 3 -10 2 -10 -4 0 -5 -17 -15 -37 -22 -21 -6 -49 -18 -63 -25 -82 -44 -226 -65 -307 -45 -82 21 -192 65 -186 75 4 5 -1 7 -10 3 -9 -3 -24 1 -33 11 -10 9 -20 17 -23 16 -11 -2 -76 43 -96 66 -11 13 -15 21 -10 19 6 -3 41 -20 79 -39 61 -29 78 -33 145 -33 85 1 119 12 171 51 19 15 38 26 42 25 13 -5 67 120 84 194 18 83 15 168 -10 228 -8 19 -38 59 -66 89 -60 63 -188 133 -263 142 -56 7 -140 -11 -159 -34 -11 -14 -10 -15 7 -8 66 27 154 29 231 5 33 -10 136 -79 119 -79 -8 0 -124 43 -200 75 -25 10 -66 7 -120 -9 l-41 -13 -34 54 c-19 29 -38 53 -42 53 -5 0 4 -19 18 -41z m528 -222 c25 -61 26 -83 2 -32 -25 51 -30 65 -21 65 3 0 11 -15 19 -33z"/> <path d="M852 1058 c-44 -36 -72 -69 -92 -107 -50 -101 -62 -268 -23 -348 9 -19 17 -32 19 -30 2 2 -4 40 -13 85 -13 63 -14 86 -6 104 7 13 21 61 33 108 25 106 59 156 128 190 63 32 93 34 183 15 139 -28 213 -94 253 -226 32 -103 33 -151 5 -225 -16 -41 -39 -75 -88 -124 -57 -58 -73 -69 -119 -79 -30 -6 -57 -9 -62 -6 -5 3 -21 7 -37 9 -16 1 -40 9 -55 17 -87 47 -107 61 -147 98 -45 41 -64 54 -41 26 12 -14 7 -20 -14 -16 -8 2 60 -66 109 -107 50 -43 175 -69 277 -57 58 7 63 10 133 79 80 79 99 120 111 236 7 77 -13 171 -51 234 -13 23 -32 56 -41 74 -10 17 -23 32 -30 32 -7 0 -55 14 -106 32 -68 23 -116 32 -178 34 l-85 4 -63 -52z"/> <path d="M1490 1088 c0 -16 5 -28 10 -28 13 0 13 20 0 40 -8 12 -10 9 -10 -12z"/> <path d="M754 1025 c-10 -16 -20 -32 -24 -35 -12 -10 -40 -130 -39 -167 1 -25 3 -29 5 -13 17 113 46 183 95 229 21 20 21 20 1 18 -11 0 -28 -15 -38 -32z"/> <path d="M975 1053 c-11 -3 -24 -9 -30 -15 -6 -6 18 -7 67 -2 76 7 77 6 107 -23 16 -16 35 -50 42 -74 14 -53 14 -299 -1 -349 -12 -43 -13 -63 -1 -56 19 12 35 147 35 294 1 83 2 152 5 152 2 0 20 -10 40 -22 l36 -21 -23 25 c-40 44 -133 88 -198 92 -33 3 -68 2 -79 -1z"/> <path d="M1505 1030 c10 -36 57 -120 67 -120 8 0 -39 99 -62 130 -9 12 -10 10 -5 -10z"/> <path d="M1646 468 c-68 -70 -65 -77 8 -19 21 17 43 31 49 31 6 0 7 3 4 6 -3 4 -2 15 4 26 20 38 3 26 -65 -44z"/> <path d="M1578 482 c-115 -123 -230 -195 -340 -213 -50 -8 -72 -6 -135 11 -42 11 -88 29 -102 38 -34 23 -98 52 -114 52 -20 -1 34 -38 113 -77 73 -37 78 -38 185 -38 96 0 115 3 150 23 22 12 45 22 52 22 32 0 176 121 201 169 15 30 11 36 -10 13z"/> <path d="M770 433 c0 -7 13 -21 30 -33 l29 -21 -10 31 c-10 28 -29 42 -29 20 0 -5 5 -10 12 -10 6 0 8 -3 4 -7 -4 -5 -14 1 -22 11 -8 11 -14 15 -14 9z"/> </g> </svg> 